<svg width="24" height="24" viewBox="0 0 24 24" fill="none" xmlns="http://www.w3.org/2000/svg">
<path d="M19.9795 9.063L20.7295 9.065V9.063H19.9795ZM4.01955 9.063H3.26955V9.065L4.01955 9.063ZM19.0995 10.66L18.5265 11.145L18.6105 11.245L18.7245 11.31L19.0995 10.66ZM18.8275 9.395C18.6671 9.27724 18.4664 9.22805 18.2697 9.25825C18.073 9.28844 17.8963 9.39554 17.7785 9.556C17.6608 9.71646 17.6116 9.91712 17.6418 10.1138C17.672 10.3106 17.7791 10.4872 17.9395 10.605L18.8275 9.395ZM6.05955 10.605C6.139 10.5467 6.20619 10.4733 6.25727 10.389C6.30836 10.3048 6.34235 10.2113 6.3573 10.1138C6.37225 10.0164 6.36787 9.91704 6.34441 9.82132C6.32094 9.72561 6.27886 9.63545 6.22055 9.556C6.16224 9.47655 6.08886 9.40936 6.00458 9.35827C5.92031 9.30719 5.8268 9.27319 5.72939 9.25824C5.63198 9.24329 5.53258 9.24768 5.43687 9.27114C5.34115 9.29461 5.251 9.33669 5.17155 9.395L6.05955 10.605ZM11.9995 5.656C11.2275 5.656 10.7895 5.697 10.4435 5.74C10.1035 5.782 9.93155 5.812 9.60555 5.812V7.312C10.0455 7.312 10.3305 7.265 10.6255 7.229C10.9155 7.193 11.2915 7.156 11.9995 7.156V5.656ZM11.9995 7.156C12.7075 7.156 13.0845 7.193 13.3725 7.229C13.6685 7.265 13.9525 7.312 14.3935 7.312V5.812C14.0675 5.812 13.8955 5.782 13.5555 5.74C13.0392 5.67832 12.5195 5.65026 11.9995 5.656V7.156ZM14.3935 7.313C14.6065 7.313 14.8055 7.252 14.9485 7.199C15.1045 7.141 15.2655 7.065 15.4205 6.985C15.7255 6.828 16.0795 6.618 16.4035 6.431C16.7435 6.236 17.0635 6.058 17.3505 5.928C17.6585 5.788 17.8345 5.75 17.9045 5.75V4.25C17.4965 4.25 17.0745 4.407 16.7335 4.56C16.3655 4.73336 16.0057 4.9239 15.6555 5.131C15.3015 5.335 14.9975 5.516 14.7335 5.651C14.6042 5.71767 14.5022 5.76467 14.4275 5.792C14.3405 5.824 14.3405 5.812 14.3935 5.812V7.313ZM17.9045 5.75C18.2495 5.75 18.5795 5.853 18.8115 6.053C19.0235 6.235 19.2295 6.563 19.2295 7.188H20.7295C20.7295 6.188 20.3775 5.422 19.7905 4.916C19.2245 4.429 18.5185 4.25 17.9045 4.25V5.75ZM19.2295 7.188V9.063H20.7295V7.188H19.2295ZM9.60555 5.813C9.65855 5.813 9.65855 5.824 9.57155 5.793C9.46699 5.75177 9.36483 5.7047 9.26555 5.652C9.00155 5.516 8.69755 5.335 8.34355 5.132C8.00355 4.936 7.62755 4.724 7.26555 4.561C6.92555 4.407 6.50255 4.25 6.09455 4.25V5.75C6.16455 5.75 6.34055 5.789 6.64855 5.928C6.93555 6.058 7.25655 6.236 7.59555 6.431C7.91955 6.618 8.27355 6.828 8.57855 6.985C8.73355 7.065 8.89455 7.141 9.05055 7.199C9.19355 7.252 9.39255 7.313 9.60555 7.313V5.813ZM6.09455 4.25C5.48055 4.25 4.77455 4.429 4.20855 4.916C3.62155 5.421 3.26955 6.188 3.26955 7.187H4.76955C4.76955 6.562 4.97555 6.235 5.18755 6.053C5.41955 5.853 5.75055 5.75 6.09455 5.75V4.25ZM3.26955 7.188V9.063H4.76955V7.187L3.26955 7.188ZM11.9995 20.75C13.4305 20.75 15.5395 20.465 17.3195 19.646C19.1035 18.826 20.7295 17.373 20.7295 15H19.2295C19.2295 16.533 18.2225 17.58 16.6935 18.284C15.1645 18.988 13.2815 19.25 11.9995 19.25V20.75ZM19.6715 10.176C19.4211 9.88442 19.1379 9.6217 18.8275 9.395L17.9395 10.605C18.1782 10.783 18.3739 10.962 18.5265 11.144L19.6715 10.176ZM19.2295 9.06C19.2295 9.258 19.1885 9.67 19.0915 9.955C19.0365 10.114 19.0055 10.11 19.0615 10.065C19.1195 10.0209 19.188 9.9926 19.2603 9.98296C19.3325 9.97332 19.406 9.98264 19.4735 10.01L18.7245 11.31C18.9045 11.414 19.1265 11.49 19.3745 11.477C19.6295 11.464 19.8405 11.363 20.0005 11.235C20.2875 11.005 20.4325 10.669 20.5105 10.439C20.6785 9.948 20.7285 9.359 20.7305 9.065L19.2295 9.06ZM11.9995 19.25C10.7175 19.25 8.83655 18.988 7.30555 18.284C5.77555 17.58 4.76955 16.533 4.76955 15H3.26955C3.26955 17.373 4.89555 18.826 6.67955 19.646C8.45955 20.466 10.5685 20.75 11.9995 20.75V19.25ZM4.76955 15C4.76955 14.212 4.71255 13.563 4.78855 12.872C4.85855 12.227 5.04155 11.654 5.47255 11.145L4.32755 10.175C3.64755 10.98 3.38955 11.868 3.29755 12.709C3.21055 13.506 3.26955 14.369 3.26955 15H4.76955ZM5.47255 11.145C5.64635 10.9426 5.84337 10.7613 6.05955 10.605L5.17155 9.395C4.84288 9.63767 4.56155 9.89767 4.32755 10.175L5.47255 11.145ZM3.26955 9.065C3.27055 9.359 3.32055 9.948 3.48855 10.439C3.56655 10.669 3.71155 11.005 3.99855 11.235C4.15855 11.363 4.36955 11.464 4.62355 11.477C4.87255 11.489 5.09355 11.414 5.27455 11.31L4.52555 10.01C4.59296 9.98282 4.66627 9.9736 4.73831 9.98324C4.81035 9.99288 4.87866 10.0211 4.93655 10.065C4.99355 10.11 4.96255 10.114 4.90755 9.955C4.82064 9.66443 4.7742 9.36326 4.76955 9.06L3.26955 9.065Z" fill="white"/>
<path d="M12.8262 16C12.8262 16.173 12.4652 16.313 12.0202 16.313C11.5752 16.313 11.2132 16.173 11.2132 16C11.2132 15.827 11.5742 15.688 12.0202 15.688C12.4652 15.688 12.8262 15.828 12.8262 16ZM15.5002 13.594C15.5002 14.025 15.2832 14.375 15.0162 14.375C14.7492 14.375 14.5322 14.025 14.5322 13.594C14.5322 13.163 14.7492 12.813 15.0162 12.813C15.2832 12.813 15.5002 13.164 15.5002 13.594ZM9.50023 13.594C9.50023 14.025 9.28323 14.375 9.01623 14.375C8.74923 14.375 8.53223 14.025 8.53223 13.594C8.53223 13.163 8.74923 12.813 9.01623 12.813C9.28323 12.813 9.50023 13.164 9.50023 13.594Z" stroke="white" stroke-width="1.5"/>
<path d="M22 15.469C21.517 15.156 19.42 14.375 18.613 14.375M20.387 17.969C19.903 17.656 18.774 16.875 17.967 16.875M2 15.469C2.484 15.156 4.58 14.375 5.387 14.375M3.613 17.969C4.097 17.656 5.226 16.875 6.033 16.875" stroke="white" stroke-width="1.5" stroke-linecap="round"/>
</svg>
