<svg width="24" height="24" viewBox="0 0 24 24" fill="none" xmlns="http://www.w3.org/2000/svg">
<path d="M18 9.75C18 9.94891 17.921 10.1397 17.7803 10.2803C17.6397 10.421 17.4489 10.5 17.25 10.5C17.0511 10.5 16.8603 10.421 16.7197 10.2803C16.579 10.1397 16.5 9.94891 16.5 9.75C16.5 9.55109 16.579 9.36032 16.7197 9.21967C16.8603 9.07902 17.0511 9 17.25 9C17.4489 9 17.6397 9.07902 17.7803 9.21967C17.921 9.36032 18 9.55109 18 9.75ZM18 12.75C18 12.9489 17.921 13.1397 17.7803 13.2803C17.6397 13.421 17.4489 13.5 17.25 13.5C17.0511 13.5 16.8603 13.421 16.7197 13.2803C16.579 13.1397 16.5 12.9489 16.5 12.75C16.5 12.5511 16.579 12.3603 16.7197 12.2197C16.8603 12.079 17.0511 12 17.25 12C17.4489 12 17.6397 12.079 17.7803 12.2197C17.921 12.3603 18 12.5511 18 12.75ZM15.75 12C15.9489 12 16.1397 11.921 16.2803 11.7803C16.421 11.6397 16.5 11.4489 16.5 11.25C16.5 11.0511 16.421 10.8603 16.2803 10.7197C16.1397 10.579 15.9489 10.5 15.75 10.5C15.5511 10.5 15.3603 10.579 15.2197 10.7197C15.079 10.8603 15 11.0511 15 11.25C15 11.4489 15.079 11.6397 15.2197 11.7803C15.3603 11.921 15.5511 12 15.75 12ZM19.5 11.25C19.5 11.4489 19.421 11.6397 19.2803 11.7803C19.1397 11.921 18.9489 12 18.75 12C18.5511 12 18.3603 11.921 18.2197 11.7803C18.079 11.6397 18 11.4489 18 11.25C18 11.0511 18.079 10.8603 18.2197 10.7197C18.3603 10.579 18.5511 10.5 18.75 10.5C18.9489 10.5 19.1397 10.579 19.2803 10.7197C19.421 10.8603 19.5 11.0511 19.5 11.25ZM7.125 12.75C7.52282 12.75 7.90436 12.592 8.18566 12.3107C8.46696 12.0294 8.625 11.6478 8.625 11.25C8.625 10.8522 8.46696 10.4706 8.18566 10.1893C7.90436 9.90804 7.52282 9.75 7.125 9.75C6.72718 9.75 6.34564 9.90804 6.06434 10.1893C5.78304 10.4706 5.625 10.8522 5.625 11.25C5.625 11.6478 5.78304 12.0294 6.06434 12.3107C6.34564 12.592 6.72718 12.75 7.125 12.75ZM14.643 16.92C15.0408 16.92 15.4224 16.762 15.7037 16.4807C15.985 16.1994 16.143 15.8178 16.143 15.42C16.143 15.0222 15.985 14.6406 15.7037 14.3593C15.4224 14.078 15.0408 13.92 14.643 13.92C14.2452 13.92 13.8636 14.078 13.5823 14.3593C13.301 14.6406 13.143 15.0222 13.143 15.42C13.143 15.8178 13.301 16.1994 13.5823 16.4807C13.8636 16.762 14.2452 16.92 14.643 16.92ZM10.7205 15.045H11.0205C11.2305 15.045 11.433 15.1875 11.4555 15.3975C11.508 15.6675 11.298 15.9075 11.0355 15.9075H10.713C10.5976 15.9075 10.487 15.9533 10.4054 16.0349C10.3238 16.1165 10.278 16.2271 10.278 16.3425V16.665C10.278 16.9275 10.038 17.1375 9.768 17.085C9.558 17.0475 9.4155 16.845 9.4155 16.635V16.335C9.4155 16.2196 9.36967 16.109 9.28809 16.0274C9.20651 15.9458 9.09587 15.9 8.9805 15.9H8.658C8.3955 15.9 8.1855 15.66 8.238 15.39C8.2755 15.18 8.478 15.0375 8.688 15.0375H8.988C9.228 15.0375 9.423 14.8425 9.423 14.6025V14.28C9.423 14.0175 9.663 13.8075 9.933 13.86C10.143 13.8975 10.2855 14.1 10.2855 14.31V14.61C10.2855 14.85 10.4805 15.045 10.7205 15.045Z" fill="white"/>
<path d="M5.05997 6.44775C4.51522 6.71333 4.03621 7.0965 3.6575 7.56964C3.27878 8.04277 3.00981 8.59407 2.86997 9.18375V9.18675L2.84597 9.2625L2.75972 9.549C2.32748 10.9928 1.9393 12.4495 1.59572 13.917C1.29947 15.1882 1.02497 16.56 0.872722 17.7908C0.725722 18.9878 0.677722 20.1705 0.916972 20.9977C1.26197 22.1947 2.35322 22.8135 2.97947 23.094H2.98097C3.29027 23.2301 3.6312 23.2779 3.96599 23.2321C4.30077 23.1863 4.61634 23.0487 4.87772 22.8345L4.88447 22.8292L4.89122 22.8232L5.43797 22.356C6.26945 21.6455 7.10195 20.9363 7.93547 20.2283C8.15217 20.0453 8.36967 19.8633 8.58797 19.6823L8.60297 19.671L8.60747 19.6672C8.74997 19.5592 8.92697 19.5 9.11372 19.5H14.8857C15.0545 19.5 15.2307 19.5562 15.3837 19.662L19.124 22.8307L19.1292 22.8345C19.4322 23.082 19.7967 23.187 20.0997 23.2185C20.396 23.25 20.7357 23.2223 21.0222 23.0963C21.6537 22.8188 22.7352 22.1925 23.0885 21.003L23.09 20.9977L23.0915 20.9925C23.324 20.166 23.2715 18.9848 23.1192 17.7885C22.964 16.5585 22.6857 15.1875 22.388 13.9163C22.019 12.3517 21.5997 10.7994 21.131 9.26175L21.1077 9.18675L21.107 9.18375C20.7432 7.6965 19.6677 6.62625 18.3012 6.20175C17.5197 5.64 16.4397 5.25 14.9472 5.25L14.2647 6H9.40772L8.72522 5.25C7.02347 5.25 5.85797 5.7555 5.05997 6.44775ZM4.30772 9.61275L4.31747 9.58275L4.32347 9.55725C4.61897 8.31375 5.69222 7.5 7.02647 7.5H16.9505C18.2915 7.5 19.358 8.313 19.6542 9.55725L19.6602 9.58275L19.6752 9.63075L19.697 9.702L19.781 9.9795C20.2059 11.3937 20.588 12.8203 20.927 14.2575C21.2195 15.5055 21.485 16.8195 21.632 17.9775C21.782 19.1647 21.7895 20.073 21.6492 20.58C21.4917 21.1005 20.9592 21.4837 20.4252 21.72L20.387 21.7275C20.3438 21.7312 20.3004 21.7312 20.2572 21.7275C20.1948 21.725 20.1339 21.707 20.0802 21.675L16.3092 18.48L16.2867 18.4635C15.8802 18.1658 15.3903 18.0037 14.8865 18H9.11447C8.61197 18 8.11397 18.159 7.70222 18.4725C7.54097 18.594 6.57647 19.4137 5.68922 20.1697C5.23697 20.5552 4.79372 20.9333 4.46372 21.216L3.92447 21.6765C3.87853 21.7134 3.82356 21.7372 3.76526 21.7457C3.70697 21.7541 3.64748 21.7468 3.59297 21.7245C3.03572 21.4755 2.50772 21.0975 2.35847 20.5815V20.58C2.21222 20.0753 2.21597 19.1662 2.36222 17.9745C2.50472 16.8172 2.76722 15.504 3.05747 14.2568C3.41587 12.7254 3.82384 11.2061 4.28072 9.70125L4.30322 9.63L4.30772 9.61275Z" fill="white"/>
</svg>
