<svg width="24" height="24" viewBox="0 0 24 24" fill="none" xmlns="http://www.w3.org/2000/svg">
<path d="M5.5 16C5.91667 16 6.271 15.8543 6.563 15.563C6.855 15.2717 7.00067 14.9173 7 14.5C6.99933 14.0827 6.85367 13.7287 6.563 13.438C6.27233 13.1473 5.918 13.0013 5.5 13C5.082 12.9987 4.728 13.1447 4.438 13.438C4.148 13.7313 4.002 14.0853 4 14.5C3.998 14.9147 4.144 15.269 4.438 15.563C4.732 15.857 5.086 16.0027 5.5 16ZM3 21V20L4.5 19C3.53333 19 2.70833 18.6583 2.025 17.975C1.34167 17.2917 1 16.4667 1 15.5V6.00001C1 4.61667 1.64167 3.60434 2.925 2.96301C4.20833 2.32167 6.23333 2.00067 9 2.00001C9.88333 2.00001 10.7167 2.02934 11.5 2.08801C12.2833 2.14667 13.0083 2.25067 13.675 2.40001L13.65 4.45001C13.0833 4.28334 12.421 4.16667 11.663 4.10001C10.905 4.03334 10.0173 4.00001 9 4.00001C7.56667 4.00001 6.37933 4.08334 5.438 4.25001C4.49667 4.41667 3.82567 4.66667 3.425 5.00001H12.65L8 7.00001H3V10H8V12H3V15.5C3 15.7 3.03767 15.8917 3.113 16.075C3.18833 16.2583 3.29633 16.421 3.437 16.563C3.57767 16.705 3.74033 16.8133 3.925 16.888C4.10967 16.9627 4.30133 17 4.5 17H10.025L9.175 21H3ZM11 22L13.8 8.90001L12 9.60001V12H10V8.30001L15.05 6.15001C15.5333 5.95001 16.025 5.92934 16.525 6.08801C17.025 6.24667 17.4167 6.55067 17.7 7.00001L18.7 8.60001C19.1 9.30001 19.5127 9.87501 19.938 10.325C20.3633 10.775 21.0507 11 22 11V13C20.9 13 20.0377 12.771 19.413 12.313C18.7883 11.855 18.1507 11.2507 17.5 10.5L16.9 12.5L19 14.5V22H17V16L14.9 14L13.1 22H11ZM17.5 5.50001C16.95 5.50001 16.4793 5.30434 16.088 4.91301C15.6967 4.52167 15.5007 4.05067 15.5 3.50001C15.4993 2.94934 15.6953 2.47867 16.088 2.08801C16.4807 1.69734 16.9513 1.50134 17.5 1.50001C18.0487 1.49867 18.5197 1.69467 18.913 2.08801C19.3063 2.48134 19.502 2.95201 19.5 3.50001C19.498 4.04801 19.3023 4.51901 18.913 4.91301C18.5237 5.30701 18.0527 5.50267 17.5 5.50001Z" fill="white"/>
</svg>
