<svg width="24" height="24" viewBox="0 0 24 24" fill="none" xmlns="http://www.w3.org/2000/svg">
<path fill-rule="evenodd" clip-rule="evenodd" d="M18 3C18.7956 3 19.5587 3.31607 20.1213 3.87868C20.6839 4.44129 21 5.20435 21 6V18C21 18.7956 20.6839 19.5587 20.1213 20.1213C19.5587 20.6839 18.7956 21 18 21H6C5.20435 21 4.44129 20.6839 3.87868 20.1213C3.31607 19.5587 3 18.7956 3 18V6C3 5.20435 3.31607 4.44129 3.87868 3.87868C4.44129 3.31607 5.20435 3 6 3H18ZM18 5H6C5.73478 5 5.48043 5.10536 5.29289 5.29289C5.10536 5.48043 5 5.73478 5 6V18C5 18.2652 5.10536 18.5196 5.29289 18.7071C5.48043 18.8946 5.73478 19 6 19H18C18.2652 19 18.5196 18.8946 18.7071 18.7071C18.8946 18.5196 19 18.2652 19 18V6C19 5.73478 18.8946 5.48043 18.7071 5.29289C18.5196 5.10536 18.2652 5 18 5ZM8.5 14C8.87288 14 9.23239 14.1389 9.50842 14.3896C9.78445 14.6403 9.9572 14.9848 9.993 15.356L10 15.51C9.99981 15.8952 9.85142 16.2656 9.58559 16.5444C9.31976 16.8232 8.95686 16.989 8.57209 17.0075C8.18731 17.026 7.81017 16.8958 7.5188 16.6438C7.22743 16.3918 7.04417 16.0374 7.007 15.654L7 15.5C7 15.1022 7.15804 14.7206 7.43934 14.4393C7.72064 14.158 8.10218 14 8.5 14ZM15.5 14C15.8729 14 16.2324 14.1389 16.5084 14.3896C16.7844 14.6403 16.9572 14.9848 16.993 15.356L17 15.51C16.9998 15.8952 16.8514 16.2656 16.5856 16.5444C16.3198 16.8232 15.9569 16.989 15.5721 17.0075C15.1873 17.026 14.8102 16.8958 14.5188 16.6438C14.2274 16.3918 14.0442 16.0374 14.007 15.654L14 15.5C14 15.1022 14.158 14.7206 14.4393 14.4393C14.7206 14.158 15.1022 14 15.5 14ZM12 10.5C12.3729 10.5 12.7324 10.6389 13.0084 10.8896C13.2844 11.1403 13.4572 11.4848 13.493 11.856L13.5 12.01C13.4998 12.3952 13.3514 12.7656 13.0856 13.0444C12.8198 13.3232 12.4569 13.489 12.0721 13.5075C11.6873 13.526 11.3102 13.3958 11.0188 13.1438C10.7274 12.8918 10.5442 12.5374 10.507 12.154L10.5 12C10.5 11.6022 10.658 11.2206 10.9393 10.9393C11.2206 10.658 11.6022 10.5 12 10.5ZM8.5 7C8.87288 7.00002 9.23239 7.13892 9.50842 7.38962C9.78445 7.64032 9.9572 7.98484 9.993 8.356L10 8.51C9.99981 8.89522 9.85142 9.26559 9.58559 9.54439C9.31976 9.82318 8.95686 9.98901 8.57209 10.0075C8.18731 10.026 7.81017 9.89581 7.5188 9.64382C7.22743 9.39184 7.04417 9.03742 7.007 8.654L7 8.5C7 8.10218 7.15804 7.72064 7.43934 7.43934C7.72064 7.15804 8.10218 7 8.5 7ZM15.5 7C15.8729 7.00002 16.2324 7.13892 16.5084 7.38962C16.7844 7.64032 16.9572 7.98484 16.993 8.356L17 8.51C16.9998 8.89522 16.8514 9.26559 16.5856 9.54439C16.3198 9.82318 15.9569 9.98901 15.5721 10.0075C15.1873 10.026 14.8102 9.89581 14.5188 9.64382C14.2274 9.39184 14.0442 9.03742 14.007 8.654L14 8.5C14 8.10218 14.158 7.72064 14.4393 7.43934C14.7206 7.15804 15.1022 7 15.5 7Z" fill="white"/>
</svg>
